<?xml version="1.0" encoding="iso-8859-1"?>
<!-- Generator: Adobe Illustrator 16.0.0, SVG Export Plug-In . SVG Version: 6.00 Build 0)  -->
<!DOCTYPE svg PUBLIC "-//W3C//DTD SVG 1.1//EN" "http://www.w3.org/Graphics/SVG/1.1/DTD/svg11.dtd">
<svg version="1.1" id="Capa_1" xmlns="http://www.w3.org/2000/svg" xmlns:xlink="http://www.w3.org/1999/xlink" x="0px" y="0px"
	 width="194.11px" height="194.11px" viewBox="0 0 194.11 194.11" style="enable-background:new 0 0 194.11 194.11;"
	 xml:space="preserve">
<g>
	<path d="M184.245,157.992c-25.745-6.074-53.326-1.687-79.379-0.104c-32.725,1.987-66.251-1.479-98.513,5.445
		c-0.377,0.081-0.571,0.319-0.68,0.598c-0.598-0.059-1.206,0.149-1.477,0.746c-1.831,4.04-1.635,3.648-2.163,8.346
		c-0.113,1.007,0.828,2.188,1.806,2.371c33.12,6.22,70.148,2.298,103.556,1.013c18.135-0.698,36.396-1.575,54.396-4.012
		c5.187-0.702,20.321-1.053,22.148-8.097C186.967,163.562,187.92,158.859,184.245,157.992z M148.304,167.773
		c-18.164,1.896-36.442,2.785-54.684,3.512c-18.473,0.736-36.968,1.012-55.455,0.871c-6.646-0.051-13.295-0.187-19.937-0.435
		c-2.478-0.093-4.952-0.242-7.425-0.417c-5.276-0.375-4.293-0.515-3.648-5.789c30.985,0.649,62.26-0.445,93.241-1.294
		c25.805-0.707,51.106-3.881,76.772-0.639C171.917,166.204,151.929,167.396,148.304,167.773z"/>
	<path d="M99.498,58.891c-2.252,0.022-4.512,0.16-6.773,0.334c-1.727-6.999-8.708-12.892-15.989-11.581
		c-7.755,1.396-9.514,9.469-7.723,16.049C32.121,74.924,1.192,105.204,6.553,146.37c-0.469,1.059-0.399,2.395,0.247,3.425
		c-0.409,0.673-0.129,1.698,0.924,1.794c0.616,0.055,1.231,0.085,1.847,0.132c2.923,1.159,6.24,0.99,9.488,0.446
		c24.58,0.396,49.008-4.485,73.524-6.153c27.704-1.885,57.229-1.641,84.65,2.784c1.801,0.291,3.071-0.964,3.426-2.345
		c0.876-0.568,1.498-1.473,1.839-2.486c0.342-0.202,0.651-0.481,0.852-0.944C204.254,94.505,139.914,58.502,99.498,58.891z
		 M79.496,54.203c0.2-0.128,0.376-0.158,0.567-0.249c2.891-0.061,4.453,2.944,5.588,6.038c-2.796,0.398-5.585,0.881-8.353,1.496
		C76.207,58.852,77.017,55.788,79.496,54.203z M179.592,137.804c-0.031-0.012-0.056-0.028-0.089-0.038
		c-31.147-9.94-63.847-6.279-95.752-2.503c-14.897,1.763-29.904,2.166-44.786,4.141c-8.925,1.185-18.968,5.562-28.039,5.354
		C14.94,98.421,48.94,70.449,95.27,66.83C132.876,63.892,188.472,94.242,179.592,137.804z"/>
	<path d="M58.128,51.217C55.873,46.8,53.072,42.6,50.545,38.33c-2.019-3.411-3.954-8.499-7.142-10.973
		c-2.911-2.259-8.44-0.342-6.917,4.026c1.354,3.881,4.88,7.265,7.402,10.459c3.284,4.159,6.582,8.741,10.758,12.06
		C56.583,55.441,59.327,53.565,58.128,51.217z"/>
	<path d="M39.382,58.392c-2.987-2.419-5.971-4.689-9.127-6.887c-2.98-2.075-5.897-4.669-9.079-6.399
		c-3.866-2.102-8.193,3.078-4.8,6.221c5.466,5.062,13.847,8.701,20.96,10.579C39.238,62.408,41.095,59.778,39.382,58.392z"/>
	<path d="M20.008,73.403c-3.01-0.826-6.03-1.252-9.083-1.885c-1.153-0.239-2.37-0.543-3.44-1.044
		c-0.139-0.065-3.329-1.318-2.321-0.658C2.438,68.032-0.5,70.95,0.072,73.731c1.632,7.938,15.57,5.63,20.323,2.632
		C21.563,75.625,21.396,73.783,20.008,73.403z"/>
	<path d="M133.106,15.333c-4.203,0.607-6.829,5.332-9.051,8.548c-2.981,4.316-5.362,9.004-8.381,13.299
		c-1.499,2.134,1.827,4.616,3.57,2.754c3.268-3.492,6.187-7.288,9.109-11.068c2.524-3.266,6.826-6.278,7.968-10.318
		C136.915,16.443,134.991,15.06,133.106,15.333z"/>
	<path d="M153.257,25.257c-7.975,3.879-10.562,15.34-16.26,21.656c-2.393,2.653,0.593,6.458,3.753,4.864
		c3.896-1.965,6.681-5.376,9.194-8.862c2.771-3.845,5.536-7.122,8.813-10.529C162.464,28.533,157.811,23.043,153.257,25.257z"/>
	<path d="M189.833,42.544c-2.925,0.094-5.437,1.561-8.147,2.569c-3.177,1.181-6.353,2.316-9.472,3.646
		c-5.234,2.232-9.877,6.233-10.205,12.197c-0.173,3.143,4.146,3.984,5.665,1.534c2.549-4.11,7.146-5.501,11.536-6.865
		c4.33-1.345,10.632-2.009,13.737-5.564C195.339,47.322,193.915,42.413,189.833,42.544z"/>
</g>
<g>
</g>
<g>
</g>
<g>
</g>
<g>
</g>
<g>
</g>
<g>
</g>
<g>
</g>
<g>
</g>
<g>
</g>
<g>
</g>
<g>
</g>
<g>
</g>
<g>
</g>
<g>
</g>
<g>
</g>
</svg>
